<?xml version="1.0" encoding="UTF-8"?>
<svg id="Layer_1" data-name="Layer 1" xmlns="http://www.w3.org/2000/svg" viewBox="0 0 2210.46 2210.46">
  <defs>
    <style>
      .cls-1 {
        fill: #a90000;
      }

      .cls-2 {
        fill: #b40000;
      }

      .cls-3 {
        font-family: Arial-Black, 'Arial Black';
        font-size: 45px;
        font-weight: 800;
        letter-spacing: .1em;
      }

      .cls-4 {
        fill: #450000;
      }

      .cls-5 {
        stroke-width: 70px;
      }

      .cls-5, .cls-6 {
        fill: none;
        stroke: #000;
        stroke-miterlimit: 10;
      }

      .cls-6 {
        stroke-width: 30px;
      }

      .cls-7 {
        fill: #520000;
      }

      .cls-8 {
        fill: #1fb52d;
      }
    </style>
  </defs>
  <path class="cls-4" d="M1055.66,2097.95h-14.43c-.9-.29-.89-.64,0-1.03l12.43-.02c1.07,0,2.08.24,2.01,1.05Z"/>
  <path class="cls-7" d="M1124.73,2096.91c.9.29.89.64,0,1.03h-11.34c-.08-.8.93-1.05,2-1.05l9.34.02Z"/>
  <rect class="cls-2" x="1124.73" y="2096.91" width="10.31" height="1.03"/>
  <rect class="cls-1" x="1031.95" y="2096.91" width="9.28" height="1.03"/>
  <polygon points="1029.21 1037.63 1028.81 1125.54 912.44 1125.53 912.03 1037.69 742.62 1037.5 660.09 1125.57 506.6 1125.04 689.74 930.09 888.17 720.42 1028.8 720.7 1028.89 915.21 912.52 915.56 911.75 858.54 832.42 943.96 1078.99 944.16 1079.4 1037.39 1029.21 1037.63"/>
  <path d="M1525.38,718.92c-21.51,4.62-40.04,13.13-57.25,25.63-39.82,30.42-62.76,77.12-62.53,128.28l-113.45-.02c-.74-23.92,1.75-45.83,7.09-68.46,13.29-54.65,43.25-103.97,85.67-140.63,53.82-44.77,121.59-67.08,191.4-61.86,31.99,2.39,62.44,9.8,91.39,23.6,54.51,26.09,98,69.57,124.53,123.9,19.26,38.38,29.03,80.48,27.49,123.53l-115.75.02c1.04-49.07-21-95.06-59.58-125.33-33.44-26.85-76.27-37.51-119.03-28.65Z"/>
  <path d="M1818.58,895.01c-5.14,61.85-33.37,118.22-77.14,161-64.22,62.76-149.51,85.9-237.45,69.96-26.26-4.76-50.45-13.4-73.84-26.24-45.47-23.36-82.01-59.65-106.8-104.38-17.29-31.12-28.08-64.7-30.62-100.42l114.81.08c8.07,44.56,33.95,82.75,72.14,105.75,42.75,26.04,95.67,28.5,140.44,6.33,43.62-22.21,73.85-63.45,82-112.17l116.45.09Z"/>
  <polygon points="1148.07 740.77 1059.33 792.45 1058.84 682.72 1146.15 618.54 1190.43 588.17 1274.24 588.31 1274.24 872.87 1148.45 873.03 1148.07 740.77"/>
  <polygon points="1863.64 1394.73 1806.84 1395.03 1711.33 1268.27 1710.04 1395.15 1651.24 1394.97 1652.11 1168.26 1709.15 1167.72 1804.35 1293.98 1805.53 1168.14 1863.52 1168.16 1863.64 1394.73"/>
  <path d="M1471.11,1158.4c68.38-6.66,128.08,43.7,134.43,110.86,6.38,67.48-43.44,127.71-111.11,134.01-66.98,6.23-126.79-42.81-133.73-109.94-6.93-66.97,41.95-128.26,110.41-134.93ZM1472.06,1215.1c-37.64,6.44-61.28,42.23-54.71,78.32,6.58,36.15,41.21,60.27,77.14,54.27,36.72-6.12,61.53-40.98,55.36-77.42-6.14-36.32-40.24-61.6-77.79-55.18Z"/>
  <polygon points="1274.26 1125.51 1148.41 1125.54 1148.4 894.7 1274.18 894.63 1274.26 1125.51"/>
  <polygon points="1139.74 1394.88 1081.02 1395.18 1080.78 1221.82 1009.28 1220.6 1009.28 1168.04 1209.55 1168.04 1209.7 1220.47 1139.77 1221.54 1139.74 1394.88"/>
  <polygon points="1310.88 1395.34 1251.28 1395.27 1251.29 1167.88 1310.88 1167.9 1310.88 1395.34"/>
  <path class="cls-8" d="M1045.06,1526.27c-.17,22.33-16.21,40.27-37.94,40.48l-37.69.37-.11-81.5,39.98.32c20.75.16,35.68,19.27,35.76,40.33ZM1024.51,1533.79c2.63-9.49.4-20.76-8.06-26.54-8.21-5.6-18.76-5.69-28.17-3.6l.17,45.62c15.03,1.68,31.41,1.29,36.06-15.49Z"/>
  <path class="cls-8" d="M799.96,1483.12c24.47-.41,43.27,19.16,43.61,42.29.34,23.71-18.65,43.05-42.05,43.56-23.57.51-43.17-18.34-43.79-41.63-.63-23.63,17.64-43.8,42.23-44.21ZM799.82,1501.7c-14.13.52-24.1,12.43-23.39,25.66.71,13.21,12.04,23.56,25.17,23.06,13.48-.51,23.96-11.65,23.56-25.1-.39-13.15-11.11-24.16-25.34-23.63Z"/>
  <path class="cls-8" d="M1161.47,1533.82l-37.14.44-.51,15.2,42.65.42c.32,5.87.45,11.1.11,17.13l-61.4.06v-81.49s61.59-.15,61.59-.15c.26,5.92.78,11,.3,16.84l-42.87.3c-.35,4.93-.67,9.6.17,14.37l36.89,1.47.21,15.4Z"/>
  <path class="cls-8" d="M1398.76,1549.5l-34.59-.22-7.24,17.32c-6.37.63-12.67.36-19.47-.35l34.17-79.84c6.43-1.1,12.25-.94,19.17-.65l34.79,80.42c-6.55,1.02-12.7.66-19.66.96l-7.17-17.63ZM1390.8,1531.17c-3.68-7.92-5.95-14.39-9.89-20.82l-9.14,21.01c6.66.24,12.57.63,19.04-.19Z"/>
  <path d="M576.41,1536.56h-210.81c-.28-5.78-.3-10.52.01-16.28l210.73-.03c.7,5.48.66,9.56.07,16.31Z"/>
  <path class="cls-8" d="M1268.29,1566.55c-6.65.78-12.35.45-18.75.24l-.12-63.76-25.2-.83.42-16.84,67.66-.06c1.01,5.57.77,10.93.5,16.92l-24.32.64-.19,63.69Z"/>
  <path class="cls-8" d="M681.42,1566.67c-6.37.56-12.05.4-18.1.22l-.26-63.68-24.97-1.02c-.71-5.41-.21-10.09-.11-16.49l68.36-.4c.54,6.02.46,11.16.06,16.94l-24.86.35-.13,64.1Z"/>
  <path class="cls-8" d="M1621.49,1549.84c.81,5.84.52,11.19.15,17.19l-59.16-.04.12-81.15,18.37-.2.48,63.83,40.04.37Z"/>
  <path class="cls-8" d="M1499.66,1566.79c-6.45.64-12.48.39-19.29.14l-.03-81.29c6.43-.68,12.15-.26,19.17-.23l.15,81.38Z"/>
  <g>
    <path class="cls-8" d="M604.97,978.48c-6.05-3.14-8.61-10.52-7.61-17.65,6.87,2.19,10.83,9.62,7.61,17.65Z"/>
    <path class="cls-8" d="M768.49,737.38c-3.32,1.7-6.35-2.47-6.6-4.83-.41-3.89,2.91-7.16,6.8-6.01,2.27.67,3.14,3.28,3,4.92-.16,1.87-.71,4.64-3.2,5.92Z"/>
    <g>
      <path class="cls-8" d="M944.24,1161.61c6.22-2.81,12.5.07,14.9,5.38,2.51,5.54.23,12.23-5.54,14.85-5.18,2.35-11.5.46-14.42-4.87-2.75-5.04-1.32-12.48,5.05-15.36Z"/>
      <g>
        <path class="cls-8" d="M454.26,1403.17c-2.07,5.77-8.04,7.42-12.98,6.64-5.21-.82-8.47-5.27-9.16-10.42-1.46-10.94,10.66-13.75,20.01-15.67,2.85,5.66,4.54,12.72,2.13,19.45Z"/>
        <path class="cls-8" d="M664.2,1351.44c-1.4,4.62-4.6,7.35-8.01,8.44-4.04,1.28-8.38.78-11.6-2.42-3.21-3.19-3.29-8.24-2.43-12.48s4.54-7.87,9.24-9.13c4.12-1.1,7.89,1.03,10.16,3.35,3.2,3.25,4.07,7.51,2.64,12.24Z"/>
        <path class="cls-8" d="M331.88,947.28c.53,5.79-1.33,12.51-6.62,14.8-5.41,2.34-11.28-1.8-13.47-6.08-2.78-5.44-.96-11.79,3.88-15.58,2.85-2.23,6.47-2.87,10.05-1.7,2.78.91,5.74,3.92,6.16,8.55Z"/>
        <path class="cls-8" d="M350.53,1359.49c6.67-1.77,12.36,2.29,13.93,7.63,1.84,6.28-1.93,12.38-7.54,14.09-6.05,1.83-12.01-1.48-14-6.96-2.15-5.9.84-12.95,7.62-14.76Z"/>
        <path class="cls-8" d="M739.12,1303.75c6.76-1.69,12.37,2.95,13.58,8.28,1.42,6.24-2.5,11.85-8.09,13.41-5.94,1.67-11.88-2.14-13.55-7.58-1.8-5.88,1.34-12.43,8.05-14.11Z"/>
        <path class="cls-8" d="M593.74,1396.14c-4.01,5.71-11.21,6.76-15.95,3-4.82-3.83-5.18-11.2-.83-15.96,3.78-4.13,10.05-5.28,14.6-1.95,4.25,3.11,5.83,9.71,2.18,14.91Z"/>
        <path class="cls-8" d="M406.45,926.31c1.68,3,4.36,5.26,4.94,8.94.56,3.57-1.39,6.25-4.1,7.81-2.41,1.38-5.7,1.38-8.6-.12-4.51-2.34-7.03-6.74-6.96-11.45.08-4.9,3.85-9.08,8.12-10.31,5.35-1.53,10.72-.16,13.47,5.27-2.17,1.09-4.31-.43-6.86-.14Z"/>
        <path class="cls-8" d="M251.57,1104.69c6.11-1.84,11.33,1.79,12.87,6.72,1.7,5.44-1.49,11.06-6.59,12.8-5.26,1.8-10.74-1.04-12.72-5.89-2.1-5.15.16-11.75,6.43-13.64Z"/>
        <path class="cls-8" d="M646.78,1161.53c3.54,7.63-6.59,14.3-12.61,16.74-2.17-5.25-1.62-11.68,2.41-15.65,2.6-2.56,7.14-2.33,10.21-1.09Z"/>
        <path class="cls-8" d="M723.19,1128.26c-1.93,2.19-5.2-1.09-6.33-2.47-1.63-1.99-1.6-5.72-.3-8.28,1.35-2.66,3.3-4.82,5.82-5.01,2.13-.16,7.58,1.08,7.09,4.17-.6,3.81-3.46,8.4-6.29,11.6Z"/>
        <path class="cls-8" d="M295.93,1128.51c4.4-1.04,7.79,2.21,8.37,5.17.82,4.22-1.63,7.54-5.02,8.4-3.87.98-7.47-1.28-8.46-4.67-1.08-3.67.66-7.85,5.12-8.9Z"/>
        <path class="cls-8" d="M596.1,1194.72l-9.82,15.52c-3.74-3.68-4.41-10.17-.59-14.2,2.64-2.77,7.03-2.68,10.4-1.32Z"/>
        <path class="cls-8" d="M813.49,1085.35c2.88-1.75,6.23-.57,7.45,1.44,1.59,2.62.93,6.18-1.37,7.56-2.53,1.52-5.51,1.16-7.29-.9-1.79-2.08-1.89-6.22,1.21-8.1Z"/>
        <g>
          <path class="cls-8" d="M410.43,1082.62c-2.67-.11-5.3-1.39-7.29-3.13-1.18-.84-1.18-.5,0,1.03,1.76-.1,4.94,1.19,5.27,3.06,8.48,6.59,28.71,13.82,39.86,26.13l6.88-4.14c-.11,4.88-2.92,8.15-3.71,12.9,4.1.82,6.12,3.31,5.38,7.24,2.4,2.14,5.09,3.11,8.17,5.07-1.94,3.34-15.88,26.34-11.13,28.68,2.35,1.15,4.95-.63,7.35.34l-17.58,35.59c-12.53,25.36,5.33,60.32,25.81,69.98,7.22,3.41,15.5,8.17,22.75,9.67,22.02,4.58,69.44-2,88.52-18.04.73-1.04-.29-1.28-1.34-1.25-12.81.39-28,5.83-39.63,1.74-8.65-3.04-16.28-1.62-24.94.54-8.54,2.13-19.32-1.91-24.64-8.86-2.71-3.54,1.12-8.1,3.54-9.62s7.82-2.28,10.59-.14c22.19,17.14,45.29,10.65,69.68,3.21,2.21,1.65,3.3,4.41,5.6,5.14l21.3-6.04c13.41,1.11,24.91-1.69,33.46-12.68,3.4-4.37,6.64-8.97,5.69-15.95,3.93,1.19,5.91,4.97,4.9,8.21-1.46,4.7-5.39,7.73-6.62,13.06l65.5-29.67c9.8-4.44,21.46-15.01,33.21-18.25l88.79-24.48c17.28-4.77,34.47-6.38,52.23-4.67,5.22.5,9.7,4.71,14.95,4.27l17.25-1.47c4.99-.43,9.46,1.92,11,6.11,4.53,12.36-13.86,17.08-23.4,19.2-5.19,1.15-8.46-1.55-10.3-6-6.95-16.79-44.95-2-54.78,6.95-3.06,4.96-3.71,11.64-7.65,16.2-7.41,8.58-19.2,10.38-29.58,6.23-5.06-2.02-10.71-3.09-15.9-1.2-9.08,3.31-9.58,16.09-13.05,22.24-2.2-1-4.3-1.95-5.79-1.27-1.19.55-2.99,2.86-2.01,4.55,3.36,5.78,16.75.79,17.12,12.74.17,5.53-2.01,10.57-6.85,12.72-4.39,1.95-10.12,1.53-13.46-2.53-3.41-4.15-1.14-9.82-1.1-14.86-10.98-9.76-29.37-9.66-40.6.57-8.83,8.04-16.1,17.21-22.12,27.4-3.25,5.5,5.02,20.59-7.75,31.93-5.21,4.63-12.61,7.24-19.83,5.25l-5.81-8.06c-11.5,1.07-22.6,1.85-34.05,3.5-2.51.36-5.79,1.17-6.57,3.81-4.27,14.5-14.86,11.29-14.48,26.46.29,11.46-8.12,21.66-19.59,21.82-1.32.02-3.2-.33-3.02-1.56.24-1.59,10.22-5.03,13.05-11.45.37-.83-.4-1.45-1.24-.89-8.57,5.8-17.82,8.7-27.67,10.97.81,3.17,2.32,5.1,2.33,7.9-12.2,4.52-30.1-3.82-41.05-1.71-12,2.31-22.98,6.7-34.55,11.13,2.05,2.73,4.89,2.94,7.03,5.18-7.79,7.82-22.73,4.65-31.43-.02-8.07-4.33-12.14-12.49-11.03-21.72-16.47-16.86-30.25-26.49-55-23.86-.58-3.34-.09-6.62-2.24-9.2-3.67-4.39-9.95-5.89-15.33-4.21-6.61,2.06,5.7,6.46-1.58,13.84l13.11,3.98c-4.86,4.33-11.44,6.4-17.29,3.85-4.7-2.04-7.86-5.63-8.5-9.88-1.57-10.37,7.48-14.61,16.66-18.01,1.39-7.09-4.03-15.26-11.98-17.16-9.23-2.2-19.34-6.43-28.66-7.44-12.68,2.48-25.01,5.3-38.25,5.89-15.2.68-29.29,6.19-39.79,16.87-.29,2.04,1.02,4.48-.19,6.11-8.67,5.48-20.15,6.08-29.37,1.54-7.28-3.58-11.36-10.97-11.06-18.47.29-7.29,4.54-13.52,11.22-17.43,6.69-3.91,14.95-6.16,21.6-.88l-14.65,5.25c6.61,9.09,18.59,7.76,27.21,4l-1.36-5.35c5.37-1.01,9.78-2.02,15-3.82,16.78-5.77,27.05-24.64,20.03-41.76-3.33-8.12-10.42-15.23-17.25-20.37-9.34-7.03-24.05,6.61-34.34-3.41-3.35-3.26-6.48-8.94-4.4-14.68,2.24-6.16,8.66-8.63,14.78-8.63,5.75,0,10.89,4.03,13.39,9.86,3.68,8.57,12.61,12.14,21.28,9.07,15.27-5.41,17.28,8.68,31.53,4.54,7.42-2.16,14.47-5.48,20.74-9.91,2.7-1.91,3.71-5.56,3.44-8.52-.6-6.45-16.11-12.11-7.55-24.72,9.54-14.05,17.7,3.55,28.53-.65,3.45-1.34,6.37-4.99,7.46-9.59,4.88-20.6-8.94-36.76-19.27-53.1-6.39,2.39-12.65,3.27-18.9,1.24-6.9-2.24-10.78-8.64-10.21-15.85.64-8.07,7.4-13.26,15.36-11.93,4.9.82,8.93,3.45,13.6,5.37,7.25-17.01-7.87-24.9-16.1-39.99-8.07-14.8-23.99,5.04-37.08-21.91l-19.19-7.38c5.05-3.69,9.93-1.33,16.02-1.55l-17.22-12.34c-3.54,7.76-10.89,10.67-18.37,14.09l12.96.19c-12.65,14.46-38.49,6.32-50.17-6.46-6.8-7.44-9.89-17.85-8.13-27.81,1.95-11.03,11.31-19.05,22.33-20.7,13.69-2.05,26.64,3.81,35.91,13.71,5.17,5.52,7.96,11.78,11.48,18.39,14.92,28.05,37.58,4.1,50.38,26.12,14.6,25.1,19.76,26.08,42.39,43.88,11.82,9.3,20.26,3.72,40.81,8.81,7.84,1.94,16.15-1.66,21.68-7.04,2.83-2.75,2.76-7.08.58-9.98-12.1-16.13,2.99-24.61-22.13-32.47-4.64-1.45-7.18-5.21-7-9.8.17-4.19,3.56-7.67,8.09-8.73,6.14-1.44,11.78,1.82,12.37,8.21l.95,10.22c.47,5.08,4.27,8.8,9.32,9.27,12.64,1.17,12.12,15.3,24.87,10.33,14.91-20.19,12.91-48.89,3.87-71.26-1.42-3.52-18.19-15.39-9.86-37.76l-31.55-55.7c-1.94-3.43-2.86-7.97-6.53-9.83-5.72-2.92-27.32-2.37-27.58-22.39l-.2-14.89c-8.86-7.93-16.12-16.42-23.87-25.46l.42,13.24c-3.85,3.99-8.93,5.44-13.95,7.72,5.77,2.98,13.17.82,17.63,9.19-14.51,5.81-30.23,1.53-39.99-9.92l-11.93-14c-2.06.29-3.99,2-6.1,1.92-12.08-10.04-17.7-26.19-15.63-41.81,2.14-16.19,14.74-26.87,31.22-26.68,23.78.27,43.64,18.05,47.43,41.75,2.6,16.29,10.01,40.88,30.82,39.86,15.01-.74,27.19,9.46,31.57,23.71,2.01,6.53,3.09,13.03,6.29,19.07,12.18,23.02,31.09,12.94,41.41,30.79,14,24.21,33.52,18.07,38.84,31.11.85,1.09.9,1.63-.21,1.44-7.23-1.19-14.62-3.66-20.69-7.48-.99-.46-1.05-.12-.17,1.01,6.87,2.95,13.95,5.04,21.25,6.27l1.19.98c3.63.12,6.57.67,9.69-2.92,11.18-12.84-3.89-20.66-5.17-27.25-1.25-6.4,3.65-11.36,9.51-11.89,5.32-.48,11.59,3.7,11.26,9.93-.38,7.27,1.5,13.52,6.35,18.99,3.16,3.57,5.93,8.07,10.71,9.98,13.31,5.32,25.64-23.52,26.99-34.04,1.31-10.21-11.58-24.95-7.16-41.09,1.25-4.56-1.31-8.55-5.18-11.09-7.32-4.81-13.88-13.65-12.38-23.05,2.81-17.61-5.64-32.74-21.95-40.12-11.84-5.36-20.12-16.7-19.2-29.64.67-9.47,7.06-15.98,16.37-16.53,16.2-.95,29.53,12.12,28.73,28.5l-.91,18.56c-.58,11.89,5.65,21.73,16.29,26.84,9.33,4.48,14.2,12.48,13.98,22.89-.48,23.05,10.23,38.12,27.45,53.5,1.95-2.28,2.7-4.78,4.04-7.51,3.06-6.23,11.27-9.03,16.96-4.27,3.03,2.54,3.71,8.35,1.45,11.5-2.62,3.68-7.64,5.02-11.45,4.88-2.08-3.26-1.75-6.54-4.05-9.28-2.37,14.18,2.65,26.58,6.58,39.32-.23,3.56-4.52,6.85-7.53,8.61l-17.29-33.48c-6.84-13.24-13.67-25.82-22.51-37.96,2.13,22.1,9.18,33.07,11.2,56.85.6,7.03-.88,13.68-1.37,20.63-.55,7.81-3.58,14.15-9.71,19.27,3.84,2.53,7.56.25,9.47-3.24,8.6-15.67,3.27-32.94,3.76-49.31,8.05,3.44,11.07,41.48,8.49,47.07-3.47,5.85-9.64,10.22-14.08,15.3-14.65-1.07-26.71-7.95-37.96-16.73-3.65-2.64-8-5.34-12.06-2.08l20.6,50.47-82.77,88.79c-2.1,2.26-4.7,2.58-7.17,2.74-.12,3-.58,5.58-2.89,8.04l-21.49,22.84c-1.4-3.94-.49-8.23-3.73-10.01-6.97-3.84-14.37-7.56-22.27-9.53-14.58-3.62-28.15-8.33-41.52-14.08ZM582.77,759.83c.93-10.27-8.75-19.09-18.39-18.97-2.68,13.62,9.35,3.15,18.39,18.97ZM376.25,783.45c.37.88.84,1.72,1.81,2.33,1.29-2.63,0-4.16-.56-6.35-5.26-21.08-33.2-31.83-38.43-22.29-3.52,6.43,19.46,17.85,20.18,17.91l10.71.79c3.13.23,4.28,5.35,6.28,7.61ZM613,833.19c2.03-4.06.93-8.8-1.31-12.99-1.93-3.61-6.1-6.24-11.01-6-1.1,4.22,10.1,11.97,12.32,18.99ZM444.36,852.62c.25.52.36.88.57,1.15.61.82,1.23,1.23,1.58.44.57-1.31-.83-1.72-.97-2.63-1.69-10.4-9.81-20.15-21.31-17.78,4.38,8.88,13.52,12.94,20.14,18.82ZM450.41,865.16c.5,8.84,7.02,13.36,13.71,20.46l18.6,21.17c-.13-.68.64-3.63,1.58-3.35l16.76,8.98,2.84,2.23c1.47-2.35-1.03-1.95-1.95-3.19-13.71-18.47-15.32-16.72-37.2-27.76-5.24-5.65-9.26-12.1-13.02-19.65-.79-.69-.96-1.6-1.6-3.17-1.21,1.28-.65,3.13.29,4.29ZM489.97,915.71l32.27,50.69,16.77,23.15c6.78-5.07-.05-15.5-.5-21.32l6.05-1.59-24.14-19.83c-2.33-1.92-3.78-5.13-1.9-7.86l41.51,31.24-4.68,7.23,14.33,14.76c3.03-2.6,7.18-5.86,8.21-10,2.09-8.41-4.56-15.1-12.13-16.76-15.42-3.39-15.88-15.55-32.4-23.16-15.58-7.18-29-16.58-42.52-27.39-1.13-.9-1.12-3.18-3.86-3.55-.11,1.87,1.77,2.73,2.99,4.39ZM607.74,943.77c8.87-8.86,12.85-21.04,9.47-32.62-7.03,10.72-14.23,19.24-23.6,27.56,4.47,2.24,8.62,3.65,14.13,5.06ZM279.89,981.68c-4.82-8.82-27.84-17.42-31.25-11.66-3.42,5.78,21.03,21.08,31.25,11.66ZM501.35,1021.96c4.94-12.2,3.13-24.48-2.3-35.67-.07,12.49.48,23.49,2.3,35.67ZM341.79,1028.07c.97-4.01-2.1-7.8-4.64-10-3.06-2.65-7.18-3.48-10.69-1.59l15.33,11.58ZM493.71,1075.36c9.07,3.8,19.3-1.73,21.05-10.82,1.23-6.38-.64-12.82-3.16-18.54l-7.34,19.27c-1.78,4.67-7.67,5.83-10.54,10.09ZM480.28,1071.1c1.63-5.99-1.76-12.39-7.03-15.21-7.41-3.96-4.75,12.53-7.36,16.19-2.81,3.93-7.89,5.1-11.2,8.32,7.02.87,23.76-2.58,25.59-9.3ZM371.29,1067.1c.2,7.09.68,14.05,3.7,19.93,8.97-.87-1.09-17.3-3.7-19.93ZM361.21,1092.96c-2.4-6.23-8.23-9.94-14.45-7.42,4.01,4.45,8.55,7.06,14.45,7.42ZM391.68,1134.21c1,6.22,1.9,12.39,3.78,18.69,2.57-7.4.78-14.22-2.52-20.66-.47-.91-1.09-1.65-1.59-3.35-1.14,1.47-.67,3.4.33,5.32ZM436.23,1184.97c.9-2.9-.23-7.26-2.68-7.46-4.75,3.3-9.7,7.54-15.98,5.74-10.46-2.99-7.26-17.46-9.38-23.64-4.28,12.18-10.86,22.28-22.81,28.49l26.21,10.84,16.54,12.15,8.1-26.13ZM915.4,1168.58c1.08-3.51-10.06-7.2-17.32-1.88,3.48,1.94,15.41,8.04,17.32,1.88ZM638.36,1270.09c-1.09.62-2.76,1.1-2.15,3.17,1.56-.25,2.14-1.79,3.17-2.16,23.85-8.71,48.14-28.33,67.84-45.19,14.47-12.38,30.43-21.61,48.29-28.07,16.85-6.09,12.81,1.98,31.6-11.81,1.45.55,1.84,2.84,3.58,3.91l13.09-8.75c4.12-2.75,9.16-3.8,13.73-2.01l-16.21,13.25c3.84.53,7.17-.65,11.14-.58l3.33,6.36c3.27-1.04,7.4-3.72,7.7-7.54.41-5.2,4.14-8.47,5.81-12.84.98-2.58-1.71-6.85,2.41-9.43l-71.13,20.1c-16.22,4.58-32.83,9.64-44.74,21.13l-15.24,14.7c-11.84,11.42-29.35,14.96-44.16,22.96,1.13,1.93,3.21,1.88,4.61,3.39-5.72,13.69-13.05,12.13-22.66,19.42ZM762.93,1210.89c-5.88-2.55-11.13,1.68-14.9,5.41,5.62,4.34,12.56.93,14.9-5.41ZM399.18,1231.62c-7.88-9.49-28.59-15.49-37.18-3.67,20.91-2.48,21.8,4.9,37.18,3.67ZM442.66,1254.52l-15.24-30.63c-4.53,4.61-7.91,9.78-11.94,15.03,6.88,6.77,16.81,16.08,27.18,15.59ZM469.29,1311.1l-26.58-9.53c-3.24-1.16-4.85-4.71-7.18-6.94-10.63-16.16-26.74-7.7-45.98-15.91-3.37-1.44-13.88-16.63-31.8-16.09l-19.96.6c-2.19-2.19-.41-6.78,1.31-9.83-9.05-.57-9.17,8.58-10.92,13.88l-9.4-5.64-15.95,14.18,35.16-3.91c19.11-2.13,37.68,2.55,54.11,12.4,11.6,6.96,20.12-1.46,28.18,6.29-.94,2.35-2.62,3.73-3.32,6.32,14.8,6.44,35.34,15.97,52.32,14.18ZM669.8,1296.8c-.57,2.59,4.68,2.52,6.28,1.02,6.93-6.53,11.03-16.01,9.18-25.82-6.76,2.17-8.3,9.57-5.75,15.71-2.32,3.65-8.67,4.42-9.7,9.09ZM469.06,1347.07c3.36,5.38,16.55.71,26.7,5.82,17.24,8.68,24.68-5.86,38.9-8.62,8.92-1.73,17.48-3.51,25.56-7.81,6.88-3.66,14.85-.32,21.83-2.25,8.3-2.3,12.13-12.65,15.64-20.22-18.6,4-34.85,19.62-54.7,25.69-1.15-1.95.8-3.4.57-6.19l-27.85,4.7c-2.11.36-3.64,1.73-4.07,2.93-.38,1.04.78,4.56-.11,5.25-2.72,2.1-7.49.36-10.29-.91.22-2.63,1.45-4.18,1.37-6.57l-39.8-7.07c1.1,5.71,3.22,10.38,6.28,15.26Z"/>
          <path class="cls-8" d="M465.14,708.99c-.57,1.99-4.91.78-6.07-.86-9.78-13.73-23.73,4.23-38.61-18.04-7.16-10.71-9.87-23.77-3.03-35.21,3.6-6.02,9.12-10.35,15.15-11.6,19.46-4.03,36.71,19.69,33.67,40.49-.7,4.77-3.64,8.83-3.69,13.56-.04,3.63,3.87,7.2,2.58,11.65ZM454.69,675.39c.38-8.56-2.5-16.74-9.63-21.42-4.06-2.66-11.36-4.08-14.03.99-2.63,5,2.01,12.09,6.6,14.34,4.06,1.99,7.86-.05,11.63-.58,2.3,1.93,2.68,4.88,5.43,6.67Z"/>
          <path class="cls-8" d="M675.3,686.23c-6.45,3.63-13.62,2.43-18.67-2.49-9.7-9.44-10.49-24.65-1.91-35.03,4.11-4.98,9.55-7.36,15.62-6.84,5.99.51,11.72,3.68,14.36,9.84,4.78,11.16-7.63,21.72-9.4,34.52ZM678.34,657.61c.6-3.77-1.05-6.25-2.91-7.43-1.55-.98-5.69-2.05-6.49-.34-1.1,5.01,4.61,9.2,9.4,7.78Z"/>
          <path class="cls-8" d="M704.5,740.34c-1.53-7.11-1.71-13.46-1.11-20.68,2.09-4.19,7.78-7.17,12.47-5.18,6.98,2.97,8.39,11.53,4.59,17.68-3.35,5.31-8.84,7.71-15.95,8.19Z"/>
          <path class="cls-8" d="M694.11,791.16c1.84,6.54-2.83,14.48-9.43,14.8-5.27.26-8.44-5.01-9.3-8.59-1.26-5.28,1.23-10.39,6.16-12.65,4.89-2.24,10.89.49,12.57,6.44Z"/>
          <path class="cls-8" d="M515.29,829.62c-2.14,4.49-6.8,9-12.07,8.45-4.59-.48-6.51-6.15-6.99-10.12-.75-6.28,3.62-11.54,10.07-11.31,3.35,4.09,5.84,8.03,8.98,12.98Z"/>
          <path class="cls-8" d="M441.84,774.25c.42,3.01-4.2,4-6.18,4.07-2.59.09-4.54-2.42-5.51-5.17-1.03-2.93-1.22-5.64.92-7.5,1.7-1.47,6.02-3.91,7.75-1.29s2.54,6.37,3.03,9.89Z"/>
          <path class="cls-8" d="M704.5,858.96c-3.04-5.91,2.37-12.57,6.29-16.28,2.83,2.91,3.36,6.93,2.66,10.36-.54,2.67-4.56,6.67-8.95,5.92Z"/>
          <path class="cls-8" d="M376.25,783.45c1.2-.97,1.24-2.58,1.26-4.02.55,2.19,1.84,3.72.56,6.35-.98-.61-1.45-1.44-1.81-2.33Z"/>
          <path class="cls-8" d="M444.36,852.62c.43-.3.82-.64,1.17-1.04.15.91,1.54,1.32.97,2.63-.35.79-.97.39-1.58-.44-.21-.28-.32-.64-.57-1.15Z"/>
        </g>
      </g>
    </g>
  </g>
  <path d="M1903.62,1536.56h-210.81c-.28-5.78-.3-10.52.01-16.28l210.73-.03c.7,5.48.66,9.56.07,16.31Z"/>
  <circle class="cls-5" cx="1105.23" cy="1105.23" r="1070.23"/>
  <circle class="cls-6" cx="1105.58" cy="1106.58" r="999.9"/>
  <text class="cls-3" transform="translate(720.95 1699.32)"><tspan x="0" y="0">CAR WASH AND FLEET CARE</tspan></text>
</svg>